<svg width="33" height="33" viewBox="0 0 33 33" fill="none" xmlns="http://www.w3.org/2000/svg">
<g clip-path="url(#clip0_196_2132)">
<path fill-rule="evenodd" clip-rule="evenodd" d="M19.6733 8.25H13.3265H13.3258C12.3741 8.25 11.6172 8.25 11.0066 8.29981C10.3811 8.35082 9.8477 8.45754 9.35933 8.70593C8.57085 9.10698 7.92978 9.74691 7.52802 10.534C7.27919 11.0215 7.17229 11.5539 7.12119 12.1783C7.07128 12.7881 7.07128 13.5438 7.07129 14.4941V14.4941V18.5058V18.5058C7.07128 19.4562 7.07128 20.2119 7.12119 20.8216C7.17229 21.4461 7.27919 21.9785 7.52802 22.466C7.92978 23.253 8.57085 23.893 9.35933 24.294C9.8477 24.5425 10.3811 24.6491 11.0066 24.7002C11.6174 24.75 12.3745 24.75 13.3265 24.75H19.6733C20.6253 24.75 21.3823 24.75 21.9932 24.7002C22.6188 24.6491 23.1521 24.5425 23.6404 24.294C24.4289 23.893 25.07 23.253 25.4718 22.466C25.7205 21.9785 25.8275 21.4461 25.8786 20.8216C25.9284 20.2119 25.9284 19.4562 25.9284 18.5058V14.4942C25.9284 13.5439 25.9284 12.7881 25.8786 12.1783C25.8275 11.5539 25.7205 11.0215 25.4718 10.534C25.07 9.74691 24.4289 9.10698 23.6404 8.70593C23.1521 8.45754 22.6188 8.35082 21.9932 8.29981C21.3825 8.25 20.6256 8.25 19.674 8.25H19.6733ZM9.99348 9.94832C10.2521 9.81678 10.5812 9.73351 11.1203 9.68954C11.6676 9.64491 12.3676 9.64437 13.357 9.64437H14.4005V23.3556H13.357C12.3676 23.3556 11.6676 23.3551 11.1203 23.3104C10.5812 23.2665 10.2521 23.1832 9.99348 23.0517C9.46782 22.7843 9.04045 22.3577 8.77261 21.833C8.64083 21.5748 8.55742 21.2463 8.51338 20.7081C8.46866 20.1618 8.46812 19.463 8.46812 18.4754V14.5246C8.46812 13.537 8.46866 12.8382 8.51338 12.2919C8.55742 11.7537 8.64083 11.4252 8.77261 11.167C9.04045 10.6423 9.46782 10.2157 9.99348 9.94832ZM15.7974 23.3556H19.6427C20.6321 23.3556 21.3322 23.3551 21.8795 23.3104C22.4185 23.2665 22.7476 23.1832 23.0063 23.0517C23.5319 22.7843 23.9594 22.3577 24.2272 21.833C24.359 21.5748 24.4423 21.2463 24.4864 20.7081C24.5311 20.1618 24.5316 19.463 24.5316 18.4754V14.5246C24.5316 13.537 24.5311 12.8382 24.4864 12.2919C24.4423 11.7537 24.359 11.4252 24.2272 11.167C23.9594 10.6423 23.5319 10.2157 23.0063 9.94832C22.7476 9.81678 22.4185 9.73351 21.8795 9.68954C21.3322 9.64491 20.6321 9.64437 19.6427 9.64437H15.7974V23.3556ZM9.95326 12.3468C9.95326 11.9618 10.266 11.6496 10.6517 11.6496H12.2231C12.6088 11.6496 12.9215 11.9618 12.9215 12.3468C12.9215 12.7318 12.6088 13.044 12.2231 13.044H10.6517C10.266 13.044 9.95326 12.7318 9.95326 12.3468ZM10.6517 14.262C10.266 14.262 9.95326 14.5741 9.95326 14.9592C9.95326 15.3442 10.266 15.6563 10.6517 15.6563H12.2231C12.6088 15.6563 12.9215 15.3442 12.9215 14.9592C12.9215 14.5741 12.6088 14.262 12.2231 14.262H10.6517Z" fill="#74798B"/>
</g>
<defs>
<clipPath id="clip0_196_2132">
<rect width="18.8571" height="18.8571" fill="white" transform="translate(7.07129 7.07153)"/>
</clipPath>
</defs>
</svg>
