<svg width="30" height="28" viewBox="0 0 30 28" fill="none" xmlns="http://www.w3.org/2000/svg">
<path d="M9.75195 0.193115C11.8315 0.19317 13.5176 1.83579 13.5176 3.86206C13.5176 5.88834 11.8315 7.53095 9.75195 7.53101C7.67231 7.53101 5.98633 5.88838 5.98633 3.86206C5.98634 1.83576 7.67232 0.193115 9.75195 0.193115ZM9.75195 1.73804C8.5255 1.73804 7.53125 2.73229 7.53125 3.95874C7.53131 5.18515 8.52553 6.17944 9.75195 6.17944C10.9783 6.1794 11.9726 5.18512 11.9727 3.95874C11.9727 2.73231 10.9784 1.73808 9.75195 1.73804Z" fill="white"/>
<path d="M26.1655 10.4276C28.2451 10.4276 29.9312 12.0703 29.9312 14.0966C29.9311 16.1229 28.2451 17.7655 26.1655 17.7655C24.0859 17.7655 22.3999 16.1229 22.3999 14.0966C22.3999 12.0702 24.0859 10.4276 26.1655 10.4276ZM26.1655 11.9725C24.9391 11.9725 23.9448 12.9668 23.9448 14.1932C23.9449 15.4196 24.9391 16.4139 26.1655 16.4139C27.3919 16.4139 28.3862 15.4196 28.3862 14.1932C28.3862 12.9668 27.3919 11.9726 26.1655 11.9725Z" fill="white"/>
<path d="M20.1794 0C22.259 4.82134e-05 23.9451 1.64267 23.9451 3.66895C23.9451 5.69523 22.259 7.33784 20.1794 7.33789C18.0998 7.33789 16.4138 5.69526 16.4138 3.66895C16.4138 1.64264 18.0998 0 20.1794 0ZM20.1794 1.54492C18.953 1.54493 17.9587 2.53917 17.9587 3.76562C17.9588 4.99203 18.953 5.98632 20.1794 5.98633C21.4059 5.98633 22.4001 4.99204 22.4001 3.76562C22.4001 2.53917 21.4059 1.54492 20.1794 1.54492Z" fill="white"/>
<path d="M20.1794 20.469C22.259 20.469 23.9451 22.1117 23.9451 24.1379C23.9451 26.1642 22.259 27.8068 20.1794 27.8069C18.0998 27.8069 16.4138 26.1643 16.4138 24.1379C16.4138 22.1116 18.0998 20.469 20.1794 20.469ZM20.1794 22.0139C18.953 22.0139 17.9587 23.0082 17.9587 24.2346C17.9588 25.461 18.953 26.4553 20.1794 26.4553C21.4059 26.4553 22.4001 25.461 22.4001 24.2346C22.4001 23.0082 21.4059 22.0139 20.1794 22.0139Z" fill="white"/>
<path d="M9.75195 20.6621C11.8315 20.6622 13.5176 22.3048 13.5176 24.3311C13.5176 26.3573 11.8315 27.9999 9.75195 28C7.67231 28 5.98633 26.3574 5.98633 24.3311C5.98634 22.3047 7.67232 20.6621 9.75195 20.6621ZM9.75195 22.207C8.5255 22.207 7.53125 23.2013 7.53125 24.4277C7.53129 25.6542 8.52553 26.6484 9.75195 26.6484C10.9783 26.6484 11.9726 25.6541 11.9727 24.4277C11.9727 23.2013 10.9784 22.2071 9.75195 22.207Z" fill="white"/>
<path d="M3.76562 10.2345C5.84521 10.2346 7.53124 11.8772 7.53125 13.9034C7.53125 15.9297 5.84522 17.5723 3.76562 17.5724C1.68599 17.5724 0 15.9298 0 13.9034C1.32241e-05 11.8771 1.68599 10.2345 3.76562 10.2345ZM3.76562 11.7794C2.53917 11.7794 1.54492 12.7737 1.54492 14.0001C1.54498 15.2265 2.53921 16.2208 3.76562 16.2208C4.99195 16.2207 5.98627 15.2265 5.98633 14.0001C5.98633 12.7737 4.99198 11.7795 3.76562 11.7794Z" fill="white"/>
<path d="M14.7725 10.4276C16.852 10.4277 18.5381 12.0703 18.5381 14.0966C18.5381 16.1228 16.8521 17.7654 14.7725 17.7655C12.6928 17.7655 11.0068 16.1229 11.0068 14.0966C11.0068 12.0703 12.6928 10.4276 14.7725 10.4276ZM14.7725 11.9725C13.546 11.9725 12.5518 12.9668 12.5518 14.1932C12.5518 15.4196 13.546 16.4139 14.7725 16.4139C15.9988 16.4138 16.9931 15.4196 16.9932 14.1932C16.9932 12.9668 15.9988 11.9726 14.7725 11.9725Z" fill="white"/>
<rect x="18.1519" y="13.1311" width="4.44138" height="1.73793" fill="white"/>
<rect x="12.2971" y="6.46924" width="4.6603" height="1.73793" transform="rotate(62 12.2971 6.46924)" fill="white"/>
<rect x="14.4841" y="17.4348" width="4.9407" height="1.81119" transform="rotate(118 14.4841 17.4348)" fill="white"/>
</svg>
